<svg version="1.0" xmlns="http://www.w3.org/2000/svg"
 width="66.000000pt" height="62.000000pt" viewBox="0 0 66.000000 62.000000"
 preserveAspectRatio="xMidYMid meet">

<g transform="translate(0.000000,62.000000) scale(0.100000,-0.100000)"
fill="#000000" stroke="none">
<path d="M196 464 c-10 -10 -16 -33 -16 -66 0 -38 -5 -54 -21 -67 -31 -25 -30
-88 0 -112 26 -21 90 -25 122 -9 16 9 19 7 19 -13 0 -12 5 -28 12 -35 17 -17
55 -15 66 4 6 11 11 13 16 5 12 -18 54 -13 66 8 5 11 10 38 10 61 0 27 7 51
20 67 26 33 26 77 0 103 -23 23 -113 29 -126 9 -4 -7 -11 2 -18 22 -8 26 -17
35 -37 37 -14 2 -31 -4 -38 -12 -11 -14 -15 -14 -28 -1 -18 19 -28 19 -47 -1z
m52 -57 c3 -13 -3 -17 -27 -17 -33 0 -39 8 -19 28 17 17 42 11 46 -11z m82 -6
c0 -30 -19 -45 -45 -35 -15 6 -21 45 -8 57 3 4 17 7 30 7 19 0 23 -5 23 -29z
m160 -36 c10 -12 7 -17 -16 -26 -28 -10 -109 -8 -121 4 -3 4 -3 13 0 22 9 21
119 21 137 0z m-209 -76 c16 -8 18 -13 8 -25 -17 -21 -128 -19 -136 2 -3 9 0
20 8 25 20 12 96 11 120 -2z m89 -34 c20 -25 8 -50 -25 -50 -24 0 -31 5 -33
24 -6 37 34 55 58 26z m80 -29 c0 -19 -30 -29 -46 -15 -22 18 -16 29 16 29 19
0 30 -5 30 -14z"/>
</g>
</svg>
